Coordinates
version=1
nRows=5
nColumns=40
inDegrees=yes

Units are S.I. units (second, meters, Newtons, ...)
Angles are in degrees.

endheader
time	pelvis_tilt	pelvis_list	pelvis_rotation	pelvis_tx	pelvis_ty	pelvis_tz	hip_flexion_r	hip_adduction_r	hip_rotation_r	knee_angle_r	knee_angle_r_beta	ankle_angle_r	subtalar_angle_r	mtp_angle_r	hip_flexion_l	hip_adduction_l	hip_rotation_l	knee_angle_l	knee_angle_l_beta	ankle_angle_l	subtalar_angle_l	mtp_angle_l	lumbar_extension	lumbar_bending	lumbar_rotation	arm_flex_r	arm_add_r	arm_rot_r	elbow_flex_r	pro_sup_r	wrist_flex_r	wrist_dev_r	arm_flex_l	arm_add_l	arm_rot_l	elbow_flex_l	pro_sup_l	wrist_flex_l	wrist_dev_l
     18.85000000	     -3.10428935	     -3.74305301	     -0.29784737	      1.12060209	      0.93682433	      0.39201076	     29.34533896	     -7.85793289	     -5.47151423	     69.90205784	     69.90205784	      2.58534339	    -16.14322284	      2.37938581	     12.64352103	     -2.78979060	    -10.22058323	     18.98785226	     18.98785226	     12.01590491	    -10.92452032	      0.36025242	     -9.11298207	      6.71054061	      2.27851448	      5.25535820	    -11.76336058	     -9.86927893	     38.59247688	     44.99797145	      0.00000000	      0.00000000	     12.20698423	    -10.20972828	     -1.35680318	     41.57118925	     45.04506908	      0.00000000	      0.00000000
     18.86135714	     -3.19005643	     -3.91907905	     -0.53749668	      1.11881079	      0.93694876	      0.39191314	     30.76647219	     -7.46101844	     -5.59199229	     68.68475161	     68.68475161	      2.58910852	    -15.77961704	      2.19536622	     11.96406160	     -2.93344646	    -10.26839785	     18.62194892	     18.62194892	     12.32106340	    -10.99521049	      0.25776502	     -9.22490565	      6.91928152	      2.62642792	      3.25007773	    -11.84852080	     -9.71861366	     36.57697371	     45.07102343	      0.00000000	      0.00000000	     14.23140348	    -10.59456118	     -1.56321248	     42.95773021	     45.11775988	      0.00000000	      0.00000000
     18.87271429	     -3.21310693	     -4.11633403	     -0.73774576	      1.11716853	      0.93709524	      0.39186788	     31.90562083	     -7.03011035	     -5.79196420	     67.15573472	     67.15573472	      2.24918258	    -15.58103453	      1.28726317	     11.20018675	     -3.15326784	    -10.58439183	     18.22757033	     18.22757033	     12.48801945	    -10.68787771	     -0.52015463	     -9.34056829	      7.11935667	      2.18168324	      2.77891630	    -11.53931130	     -9.91228003	     31.80386262	     45.33921892	      0.00000000	      0.00000000	     15.44809509	    -11.58265265	     -1.30989656	     45.37891121	     45.21513649	      0.00000000	      0.00000000
     18.88407143	     -3.20145739	     -4.28055410	     -0.97878098	      1.11551984	      0.93723870	      0.39181570	     32.91263550	     -6.58566141	     -5.92527834	     65.45922494	     65.45922494	      2.16032005	    -15.17502488	      1.35946804	     10.37885651	     -3.29464647	    -10.74952516	     17.79178598	     17.79178598	     12.80538186	    -10.51054356	     -0.66100089	     -9.60282817	      7.31668594	      2.48646492	      0.86224896	    -11.60508670	     -9.93653064	     30.13949428	     45.41040820	      0.00000000	      0.00000000	     17.34705649	    -11.97969410	     -1.56424468	     46.99470775	     45.29315480	      0.00000000	      0.00000000
     18.89542857	     -3.21163899	     -4.37493881	     -1.17247228	      1.11395027	      0.93720936	      0.39177692	     33.79520041	     -6.24307651	     -6.12516190	     63.50636202	     63.50636202	      2.00072557	    -14.74499043	      1.43539258	      9.62119639	     -3.39165460	    -11.04965322	     17.42073700	     17.42073700	     13.08089303	    -10.10200067	     -1.07695708	     -9.79125703	      7.40660714	      2.49401119	     -0.58335459	    -11.50670398	    -10.09506843	     27.80076967	     45.53820188	      0.00000000	      0.00000000	     18.91300968	    -12.54310892	     -1.67029082	     48.96283468	     45.37151775	      0.00000000	      0.00000000
